<?xml version="1.0" encoding="UTF-8" standalone="no"?><!DOCTYPE svg PUBLIC "-//W3C//DTD SVG 1.1//EN" "http://www.w3.org/Graphics/SVG/1.1/DTD/svg11.dtd"><svg width="100%" height="100%" viewBox="0 0 600 450" version="1.1" xmlns="http://www.w3.org/2000/svg" xmlns:xlink="http://www.w3.org/1999/xlink" xml:space="preserve" xmlns:serif="http://www.serif.com/" style="fill-rule:evenodd;clip-rule:evenodd;stroke-linejoin:round;stroke-miterlimit:2;"><path d="M152.749,295.228l24.875,43l0.008,0.005c4.899,9.702 14.949,16.36 26.56,16.36l0.023,-0.001l-0,0.001l165.103,0l-34.261,-59.365l-182.308,0Zm294.502,0.306c-0,-5.945 -1.751,-11.479 -4.756,-16.125l-96.75,-168.186c-4.994,-9.407 -14.888,-15.816 -26.281,-15.816l-51.13,-0l149.442,258.929l23.556,-40.801c4.649,-7.814 5.919,-11.274 5.919,-18.001Zm-136.56,-42.486l-66.794,-115.692l-66.795,115.692l133.589,-0Z" style="fill:#454342;fill-rule:nonzero;"/></svg>