<?xml version="1.0" encoding="UTF-8" standalone="no"?><!DOCTYPE svg PUBLIC "-//W3C//DTD SVG 1.1//EN" "http://www.w3.org/Graphics/SVG/1.1/DTD/svg11.dtd"><svg width="100%" height="100%" viewBox="0 0 1146 313" version="1.1" xmlns="http://www.w3.org/2000/svg" xmlns:xlink="http://www.w3.org/1999/xlink" xml:space="preserve" xmlns:serif="http://www.serif.com/" style="fill-rule:evenodd;clip-rule:evenodd;stroke-linejoin:round;stroke-miterlimit:2;"><rect id="Artboard1" x="-0" y="0" width="1145.83" height="312.5" style="fill:none;"/><g><path d="M900.75,227.557l-0,-66.421l71.253,-0l-0,11.735l-54.916,-0l-0,14.496l31.983,-0l-0,11.428l-31.983,-0l-0,16.337l55.759,-0l0,12.425l-72.096,-0Z" style="fill:#454342;fill-rule:nonzero;"/><path d="M1033.31,172.564l-36.969,0l0,18.408l36.969,-0c2.812,-0 4.742,-0.409 5.791,-1.228c1.048,-0.818 1.572,-2.198 1.572,-4.141l-0,-7.67c-0,-1.943 -0.524,-3.324 -1.572,-4.142c-1.049,-0.818 -2.979,-1.227 -5.791,-1.227Zm-52.922,54.993l0,-66.421l59.825,-0c5.471,-0 9.434,1.01 11.888,3.03c2.454,2.019 3.682,5.305 3.682,9.855l-0,15.647c-0,4.499 -1.228,7.746 -3.682,9.74c-2.454,1.995 -6.417,2.992 -11.888,2.992l-13.482,-0l29.052,25.157l-20.692,-0l-27.841,-25.157l-10.909,-0l0,25.157l-15.953,-0Z" style="fill:#454342;fill-rule:nonzero;"/><path d="M1063.32,227.557l0,-66.421l71.253,-0l-0,11.735l-54.916,-0l0,14.496l31.983,-0l0,11.428l-31.983,-0l0,16.337l55.76,-0l-0,12.425l-72.097,-0Z" style="fill:#454342;fill-rule:nonzero;"/><path d="M534.487,227.557l0,-66.421l12.963,-0l32.52,39.423l32.366,-39.423l13.039,-0l-0,66.421l-15.033,-0l0,-45.712l-29.682,37.735l-3.145,0l-30.065,-36.662l-0,44.639l-12.963,-0Z" style="fill:#454342;fill-rule:nonzero;"/><path d="M457.229,214.825l53.535,-0l0,-41.494l-53.535,0l0,41.494Zm-16.183,-38.043c-0,-6.033 1.176,-10.149 3.528,-12.348c2.352,-2.199 6.928,-3.298 13.729,-3.298l51.388,-0c6.851,-0 11.44,1.099 13.767,3.298c2.326,2.199 3.49,6.315 3.49,12.348l-0,35.052c-0,6.084 -1.189,10.226 -3.567,12.425c-2.377,2.198 -6.941,3.298 -13.69,3.298l-51.388,-0c-6.801,-0 -11.377,-1.1 -13.729,-3.298c-2.352,-2.199 -3.528,-6.341 -3.528,-12.425l-0,-35.052Z" style="fill:#454342;fill-rule:nonzero;"/><path d="M419.47,173.024l-46.479,0l-0,14.036l43.258,0c6.8,0 11.377,1.087 13.729,3.26c2.352,2.173 3.528,6.302 3.528,12.386l-0,9.128c-0,6.084 -1.202,10.226 -3.605,12.425c-2.403,2.198 -6.954,3.298 -13.652,3.298l-40.267,-0c-6.852,-0 -11.492,-1.1 -13.921,-3.298c-2.428,-2.199 -3.643,-6.341 -3.643,-12.425l0,-4.526l14.42,0l-0,7.824l46.019,-0l-0,-15.187l-43.028,0c-6.801,0 -11.403,-1.112 -13.806,-3.336c-2.403,-2.224 -3.605,-6.353 -3.605,-12.387l0,-7.44c0,-5.982 1.202,-10.085 3.605,-12.31c2.403,-2.224 7.005,-3.336 13.806,-3.336l40.19,-0c6.698,-0 11.287,1.061 13.767,3.183c2.48,2.122 3.72,5.867 3.72,11.236l-0,4.602l-14.036,0l0,-7.133Z" style="fill:#454342;fill-rule:nonzero;"/><path d="M826.483,161.136l-0,25.234l50.544,-0l-0,-25.234l16.183,-0l0,66.421l-16.183,-0l-0,-27.995l-50.544,-0l-0,27.995l-16.337,-0l-0,-57.104l-22.947,57.104l-11.044,-0l-19.175,-46.94l-19.481,46.94l-11.122,-0l-22.228,-54.686l-54.898,-0l0,14.496l31.984,-0l-0,11.428l-31.984,-0l0,16.337l55.76,-0l0,12.425l-72.096,-0l-0,-66.421l83.415,-0l17.41,46.326l18.715,-46.326l11.121,-0l18.561,46.326l17.104,-46.326l27.242,-0Z" style="fill:#454342;fill-rule:nonzero;"/><path d="M11.97,10.421l361.364,0l-180.682,291.662l-87.729,-141.615l47.947,0l39.782,64.218l108.085,-174.473l-212.651,-0l25.718,38.232l105.341,-0l-24.65,39.791l-103.132,0l-79.393,-117.815Z" style="fill:#454342;"/></g></svg>